Coordinates
version=1
nRows=14
nColumns=40
inDegrees=yes

Units are S.I. units (second, meters, Newtons, ...)
Angles are in degrees.

endheader
time	pelvis_tilt	pelvis_list	pelvis_rotation	pelvis_tx	pelvis_ty	pelvis_tz	hip_flexion_r	hip_adduction_r	hip_rotation_r	knee_angle_r	knee_angle_r_beta	ankle_angle_r	subtalar_angle_r	mtp_angle_r	hip_flexion_l	hip_adduction_l	hip_rotation_l	knee_angle_l	knee_angle_l_beta	ankle_angle_l	subtalar_angle_l	mtp_angle_l	lumbar_extension	lumbar_bending	lumbar_rotation	arm_flex_r	arm_add_r	arm_rot_r	elbow_flex_r	pro_sup_r	wrist_flex_r	wrist_dev_r	arm_flex_l	arm_add_l	arm_rot_l	elbow_flex_l	pro_sup_l	wrist_flex_l	wrist_dev_l
      0.26000000	     -2.53315292	     -1.47779328	      8.28930219	     -0.56088653	      0.87948350	      1.50148916	     31.37216770	     -7.25420081	    -12.40410111	    -34.78326787	     -0.60708255	      4.10983682	    -14.12072191	     19.88955023	     -0.80623762	     -1.29177364	      7.81994662	    -24.00651304	     -0.41899269	     13.68281619	     -0.57684314	     -7.90411264	     -7.00728449	      0.91603229	    -10.44133758	     -8.28603115	     -6.42267884	    -19.74671354	     27.11846513	     89.95437384	      0.00000000	      0.00000000	      1.02912628	     11.90712247	     13.79225535	     62.17489743	     89.95437384	      0.00000000	      0.00000000
      0.27000000	     -3.11650910	     -1.04962557	      8.61372331	     -0.54872965	      0.87761713	      1.50211733	     32.35047505	     -7.94102984	    -12.80824650	    -31.69525643	     -0.55318658	      4.43533678	    -13.31892416	     19.63723793	     -1.13569897	     -1.53589834	      8.03968811	    -23.93416545	     -0.41772999	     13.61652467	     -0.76369632	     -7.89634623	     -6.46111023	      0.40308103	    -10.65658345	     -8.79224282	     -6.34358554	    -19.85819734	     26.72130779	     89.95437384	      0.00000000	      0.00000000	      1.46402934	     12.18174700	     13.66848645	     63.83088291	     89.95437384	      0.00000000	      0.00000000
      0.28000000	     -2.93619941	     -1.15081852	      9.28892738	     -0.53597190	      0.87713187	      1.50264752	     32.00836306	     -8.16859534	    -13.89738303	    -28.21904342	     -0.49251522	      5.20355015	    -10.32664296	     18.42640682	     -2.26652301	     -0.89583701	      8.11204768	    -23.70344802	     -0.41370321	     12.82385216	     -2.39629407	     -8.46000266	     -6.68452530	      0.61615845	    -11.32866475	     -8.71734022	     -6.23964103	    -20.33592390	     25.68876017	     89.95437384	      0.00000000	      0.00000000	      1.83906926	     12.35658827	     13.88915927	     65.49076413	     89.95437384	      0.00000000	      0.00000000
      0.29000000	     -3.18976190	     -0.99725920	      9.76099377	     -0.52315056	      0.87572612	      1.50347663	     32.35556603	     -8.68850101	    -15.14348278	    -25.45569016	     -0.44428561	      6.01215262	     -8.32153604	     17.03506352	     -2.87311313	     -0.59690332	      8.34945797	    -23.68575562	     -0.41339442	     12.10608702	     -3.71171323	     -9.29730281	     -6.42427897	      0.44280794	    -11.71790859	     -8.95050760	     -6.14769295	    -20.56125752	     25.03536005	     89.95437384	      0.00000000	      0.00000000	      2.17873749	     12.66390943	     13.83608810	     66.98395954	     89.95437384	      0.00000000	      0.00000000
      0.30000000	     -3.63784266	     -0.79631093	     10.12375024	     -0.51051695	      0.87409084	      1.50455007	     33.00728828	     -9.13542281	    -15.96422923	    -23.16392296	     -0.40428672	      6.19502551	     -7.51724899	     16.76618348	     -3.17781511	     -0.51123818	      8.07359283	    -23.84134134	     -0.41610990	     11.62531433	     -3.95453315	     -9.38239896	     -5.98585764	      0.17835492	    -12.01143411	     -9.17213528	     -6.05571595	    -20.74517910	     24.46192347	     89.95437384	      0.00000000	      0.00000000	      2.51026307	     12.96389354	     13.84286013	     68.33525534	     89.95437384	      0.00000000	      0.00000000
      0.31000000	     -3.71159265	     -0.83786383	     10.69867807	     -0.49708859	      0.87291143	      1.50546836	     33.21306206	     -9.68080765	    -18.55326837	    -21.56587111	     -0.37639546	      6.70985167	     -4.78007770	     14.96314696	     -3.77397469	      0.10153166	      8.10830410	    -24.16174157	     -0.42170194	     10.79606363	     -5.19823115	    -10.25122749	     -5.83614608	      0.25891748	    -12.47322216	     -9.32012291	     -5.96676315	    -21.14296039	     23.80300726	     89.95437384	      0.00000000	      0.00000000	      2.84478846	     13.17132293	     13.90417104	     69.46230489	     89.95437384	      0.00000000	      0.00000000
      0.32000000	     -4.04445470	     -0.75926567	     11.08534244	     -0.48384621	      0.87139912	      1.50665146	     33.71766533	     -9.90601284	    -19.37513932	    -20.28438833	     -0.35402936	      6.69002802	     -4.39369831	     14.66926205	     -4.03241651	      0.33686915	      7.62223245	    -24.59046767	     -0.42918463	     10.25810375	     -5.11952438	    -10.25009750	     -5.44426187	      0.15463920	    -12.77552856	     -9.51468997	     -5.89439217	    -21.27650697	     23.33371498	     89.95437384	      0.00000000	      0.00000000	      3.09214501	     13.44465747	     13.90079844	     70.51643532	     89.95437384	      0.00000000	      0.00000000
      0.33000000	     -4.19615471	     -0.87158521	     11.54351035	     -0.47004272	      0.87009976	      1.50781528	     33.98007221	     -9.96875372	    -20.64704194	    -19.53718941	     -0.34098828	      6.56417529	     -3.86227032	     14.21947182	     -4.32085248	      0.82621388	      6.84423303	    -25.33902228	     -0.44224937	      9.64071224	     -4.94739133	    -10.27466263	     -5.15102928	      0.28452318	    -13.17721422	     -9.58369976	     -5.85654326	    -21.54116383	     22.70260852	     89.95437384	      0.00000000	      0.00000000	      3.25239734	     13.64445508	     14.05664933	     71.43644966	     89.95437384	      0.00000000	      0.00000000
      0.34000000	     -4.17503299	     -0.85212213	     12.16919109	     -0.45594209	      0.86910809	      1.50827871	     34.02095815	    -10.40980549	    -22.38159612	    -19.48947727	     -0.34015555	      5.79561906	     -2.44015447	      7.52648925	     -4.84721417	      1.09222706	      5.62198948	    -25.95071617	     -0.45292544	      8.87809554	     -3.78303343	    -13.55129728	     -5.04664667	      0.37643754	    -13.71436459	     -9.71608647	     -5.84297172	    -21.80637587	     22.30906360	     89.95437384	      0.00000000	      0.00000000	      3.41004533	     13.73870524	     14.26683954	     72.17199055	     89.95437384	      0.00000000	      0.00000000
      0.35000000	     -4.03876374	     -0.93322590	     12.50394125	     -0.44117120	      0.86825919	      1.50939556	     33.82930370	    -10.21063565	    -22.70634540	    -19.64409589	     -0.34285415	      5.74406569	     -2.64220265	      7.43948863	     -5.43815872	      1.57655305	      4.89344966	    -26.74793092	     -0.46683946	      8.07779239	     -3.39736354	    -13.27022650	     -4.98944631	      0.56301488	    -13.97373960	     -9.79974417	     -5.86353175	    -21.92294922	     21.84261444	     89.95437384	      0.00000000	      0.00000000	      3.40457101	     13.89227333	     14.40530248	     72.87323124	     89.95437384	      0.00000000	      0.00000000
      0.36000000	     -3.84645508	     -1.00920281	     12.79576142	     -0.42629375	      0.86755207	      1.51046532	     33.48601557	     -9.91588319	    -22.76805484	    -20.07904583	     -0.35044546	      5.43966688	     -3.03817682	      7.41394190	     -6.02524146	      2.02076619	      4.01107892	    -27.60500021	     -0.48179814	      7.04727928	     -2.78969430	    -12.90901346	     -5.00033465	      0.77794249	    -14.19750607	     -9.84897075	     -5.90229023	    -22.05495252	     21.46615488	     89.95437384	      0.00000000	      0.00000000	      3.35384295	     14.03170677	     14.53126729	     73.44696887	     89.95437384	      0.00000000	      0.00000000
      0.37000000	     -3.75087798	     -1.01138663	     12.81142249	     -0.41099117	      0.86660914	      1.51177220	     33.30465673	     -9.55067201	    -22.34924129	    -20.99181412	     -0.36637627	      5.09323330	     -3.22933944	      7.29204139	     -6.52176038	      2.29636572	      3.20417018	    -28.55300295	     -0.49834391	      6.12239836	     -2.40964999	    -12.49499454	     -4.88421895	      0.89481464	    -14.04237384	    -10.13855710	     -5.97470496	    -22.02949327	     21.45154851	     89.95437384	      0.00000000	      0.00000000	      3.29578119	     14.07335565	     14.60829267	     73.84576413	     89.95437384	      0.00000000	      0.00000000
      0.38000000	     -3.22921353	     -1.11258884	     13.16628838	     -0.39512252	      0.86652329	      1.51249230	     32.31887355	     -9.07379485	    -22.34838490	    -21.78528146	     -0.38022489	      4.52691049	     -4.59664336	      7.52138542	     -7.36102564	      2.80461629	      2.19263591	    -29.54652038	     -0.51568406	      4.57967608	     -1.11443779	    -12.04434659	     -5.13725769	      1.24084877	    -14.39041283	     -9.99090673	     -6.04693100	    -22.29584226	     20.93014871	     89.95437384	      0.00000000	      0.00000000	      3.00094717	     14.14379105	     14.80659560	     74.20425421	     89.95437384	      0.00000000	      0.00000000
      0.39000000	     -3.14789112	     -1.11062723	     13.05531594	     -0.37930078	      0.86565168	      1.51378720	     31.96479128	     -8.52556139	    -21.28459499	    -22.83165644	     -0.39848758	      3.81268352	     -4.51317327	      7.37579627	     -7.71346060	      3.00015605	      1.31439667	    -30.68814902	     -0.53560924	      3.50562319	     -0.68016607	    -11.57588495	     -4.95642759	      1.38157155	    -14.08977854	    -10.29423485	     -6.15335442	    -22.22230260	     21.10028391	     89.95437384	      0.00000000	      0.00000000	      2.78141758	     14.11175623	     14.86467358	     74.32272076	     89.95437384	      0.00000000	      0.00000000
